<svg width="14" height="18" viewBox="0 0 14 18" fill="none" xmlns="http://www.w3.org/2000/svg">
<path d="M12.745 16.6944H8.99137C9.62193 16.1314 10.2166 15.5294 10.7718 14.892C12.8551 12.496 13.9593 9.9703 13.9593 7.58726C13.9593 5.816 13.2557 4.11727 12.0032 2.8648C10.7507 1.61232 9.05201 0.908691 7.28074 0.908691C5.50948 0.908691 3.81076 1.61232 2.55828 2.8648C1.30581 4.11727 0.602173 5.816 0.602173 7.58726C0.602173 9.9703 1.70338 12.496 3.78967 14.892C4.34491 15.5294 4.93956 16.1314 5.57012 16.6944H1.81646C1.65543 16.6944 1.50101 16.7584 1.38714 16.8722C1.27328 16.9861 1.20932 17.1405 1.20932 17.3015C1.20932 17.4626 1.27328 17.617 1.38714 17.7309C1.50101 17.8447 1.65543 17.9087 1.81646 17.9087H12.745C12.9061 17.9087 13.0605 17.8447 13.1743 17.7309C13.2882 17.617 13.3522 17.4626 13.3522 17.3015C13.3522 17.1405 13.2882 16.9861 13.1743 16.8722C13.0605 16.7584 12.9061 16.6944 12.745 16.6944ZM1.81646 7.58726C1.81646 6.13804 2.39216 4.74818 3.41691 3.72343C4.44166 2.69868 5.83153 2.12298 7.28074 2.12298C8.72996 2.12298 10.1198 2.69868 11.1446 3.72343C12.1693 4.74818 12.745 6.13804 12.745 7.58726C12.745 11.9306 8.53525 15.556 7.28074 16.5426C6.02624 15.556 1.81646 11.9306 1.81646 7.58726ZM10.3165 7.58726C10.3165 6.98686 10.1384 6.39993 9.80485 5.90071C9.47128 5.40149 8.99717 5.01239 8.44246 4.78263C7.88776 4.55286 7.27738 4.49275 6.68851 4.60988C6.09964 4.72701 5.55872 5.01614 5.13417 5.44069C4.70962 5.86524 4.42049 6.40615 4.30336 6.99502C4.18623 7.5839 4.24634 8.19428 4.47611 8.74898C4.70588 9.30368 5.09497 9.7778 5.59419 10.1114C6.09341 10.4449 6.68034 10.623 7.28074 10.623C8.08587 10.623 8.85801 10.3031 9.42732 9.73384C9.99663 9.16453 10.3165 8.39238 10.3165 7.58726ZM5.45932 7.58726C5.45932 7.22702 5.56614 6.87486 5.76628 6.57533C5.96642 6.2758 6.25089 6.04234 6.58371 5.90448C6.91654 5.76662 7.28277 5.73055 7.63609 5.80083C7.98941 5.87111 8.31396 6.04459 8.56869 6.29932C8.82342 6.55405 8.99689 6.8786 9.06717 7.23192C9.13746 7.58524 9.10138 7.95147 8.96353 8.28429C8.82567 8.61712 8.59221 8.90158 8.29268 9.10173C7.99314 9.30187 7.64099 9.40869 7.28074 9.40869C6.79767 9.40869 6.33438 9.21679 5.9928 8.87521C5.65122 8.53362 5.45932 8.07034 5.45932 7.58726Z" fill="#424242"/>
</svg>
